<svg width="861" height="855" viewBox="0 0 861 855" fill="none" xmlns="http://www.w3.org/2000/svg">
<path d="M214.484 212.717C246.382 208.279 284.282 225.232 317.19 258.658C336.496 278.267 363.371 313.987 413.379 386.5C439.662 424.611 447.067 435.127 459.43 451.902C478.06 477.179 511.869 524.097 527.958 547C535.878 558.275 546.912 573.575 552.478 581C558.044 588.425 565.804 599.225 569.719 605C584.544 626.863 605.976 649.477 621.4 659.53C639.392 671.258 655.432 677 670.203 677H678.963L684.484 672C693.413 663.914 698.275 665.739 695.505 676.137C693.523 683.573 684.871 708.903 681.129 718.219C675.816 731.448 665.519 751.031 657.845 762.5C653.796 768.55 650.068 774.175 649.56 775C648.542 776.652 652.052 773.599 668.463 758.561C689.403 739.372 694.189 734.463 699.068 727.175C703.714 720.236 706.982 711.729 708.464 702.722C708.805 700.644 709.476 699.186 709.954 699.481C711.08 700.177 713.224 693.687 712.806 690.846C712.362 687.83 710.223 687.372 709.758 690.192C709.548 691.46 709.007 681.751 708.554 668.616C707.353 633.778 708.626 622.321 716.159 600.138C721.119 585.532 728.805 569.625 731.108 569.201C733.697 568.725 738.297 574.217 740.666 580.61C743.591 588.51 749.551 609.114 750.983 616.279C752.664 624.693 752.403 643.139 750.469 652.5C749.56 656.9 747.326 664.481 745.503 669.348C741.647 679.641 742.055 679.488 749.081 668C765.801 640.662 770.235 619.856 764.424 596C758.153 570.254 754.309 543.685 755.426 533.81C756.417 525.048 759.695 515.355 762.868 511.804C766.384 507.869 769.397 508.413 774.975 513.991C779.852 518.868 782.865 524.74 786.78 537C792.837 555.965 794.502 572.914 791.543 585.492C790.015 591.99 790.266 594.016 792.027 589.389C797.769 574.302 803.707 548.164 806.455 525.891C809.282 502.968 809.922 499.298 812.561 490.884C815.55 481.344 821.944 468.414 825.643 464.423C827.86 462.03 828.308 461.896 829.637 463.225C831.708 465.296 832.645 470.244 834.044 486.5C836.12 510.63 834.01 532.358 827.827 550.5C823.464 563.303 818.549 573.211 807.488 591.5C792.709 615.935 792.683 616.291 807.094 597C823.542 574.981 850.67 550 858.132 550C862.599 550 860.685 561.673 854.058 574.854C846.731 589.426 836.767 600.259 812.459 620.08C799.151 630.932 789.651 640.461 781.939 650.692C779.531 653.887 775.262 659.2 772.451 662.5C764.584 671.739 764.862 672.165 773.533 664.162C794.779 644.552 821.179 632 841.175 632C850.553 632 851.385 632.936 848.067 639.766C843.04 650.113 828.294 665.606 811.254 678.444C794.566 691.017 768.248 702.04 739.576 708.466C737.938 708.833 733.622 712.04 729.693 715.809C721.072 724.079 693.615 755.141 697.012 752.782C720.099 736.739 737.888 731.069 761.288 732.294C772.936 732.904 787.432 736.02 789.847 738.434C792.455 741.042 790.074 745.187 780.161 755.303C764.402 771.385 749.877 779.453 731.984 782.065C725.193 783.057 719.537 783.052 703.853 782.04C672.259 780.001 666.577 781.266 644.3 795.298C637.801 799.39 631.434 803.286 630.148 803.951C628.865 804.617 627.981 805.331 628.186 805.537C628.393 805.743 632.82 805.216 638.023 804.366C652.514 801.999 676.483 802.922 689.122 806.334C703.304 810.162 716.408 815.987 716.787 818.632C717.228 821.714 711.136 826.123 697.647 832.486C671.249 844.938 651.967 849.531 629.484 848.723C613.05 848.132 600.768 845.779 579.984 839.24C572.01 836.731 564.086 834.483 562.377 834.246C560.539 833.991 555.229 835.114 549.377 836.997C527.637 843.99 496.885 850.88 480.462 852.438C477.15 852.752 472.878 853.457 470.969 854.004C465.564 855.555 462.18 855.235 461.019 853.066C459.579 850.374 459.728 847.458 461.376 846.089C462.143 845.454 471.238 843.594 481.589 841.957C502.974 838.574 521.055 834.149 528.696 830.428C535.076 827.321 544.108 817.727 549.073 808.781C551.047 805.224 555.922 794.931 559.906 785.907C569.037 765.226 572.39 759.201 581.509 747.096C594.22 730.222 618.045 709.515 623.955 710.205C625.829 710.424 626.561 711.165 626.783 713.066C627.412 718.481 614.334 749.113 601.984 771.15C595.082 783.467 585.144 797.342 575.053 808.75C570.553 813.837 567.067 817.998 567.302 818C567.542 817.999 574.654 814.688 583.109 810.641C613.973 795.869 621.615 786.872 633.843 750.903C642.705 724.835 648.713 710.726 655.596 699.823C656.907 697.744 657.983 695.922 657.986 695.771C657.988 695.622 654.055 695.649 649.248 695.83C619.479 696.955 587.961 683.572 562.618 659.048C543.775 640.813 520.492 611.201 474.196 546.593C465.168 533.994 454.102 518.694 449.603 512.593C445.104 506.492 436.004 493.85 429.379 484.5C380.062 414.897 382.87 418.916 355.654 379C347.966 367.725 339.356 355.35 336.519 351.5C331.277 344.386 320.247 328.982 311.635 316.75C309.022 313.039 306.635 310.001 306.33 310C306.026 310 306.042 314.837 306.364 320.75C306.687 326.663 307.242 351.455 307.596 375.845L308.24 420.189L311.362 419.539C313.081 419.181 326.185 418.521 340.484 418.073C357.107 417.552 367.832 416.792 370.223 415.965C373.53 414.821 374.19 414.876 375.926 416.448C378.624 418.89 388.306 433.01 387.699 433.618C387.428 433.889 382.994 435.05 377.845 436.197C369.845 437.981 364.136 438.349 338.586 438.732L308.688 439.181L309.372 498.34C309.748 530.878 310.509 561.1 311.063 565.5C313.534 585.112 321.178 598.325 333.399 604.114C340.342 607.403 340.715 607.864 340.175 612.487L339.765 616H248.984L248.986 611.75C248.989 607.617 249.14 607.421 254.457 604.643C266.699 598.246 270.693 589.904 272.512 566.925C273.122 559.22 271.969 503.165 270.379 463.221L269.77 447.941L262.127 452.05C231.887 468.305 209.157 491.302 199.39 515.525C195.978 523.987 192.75 536.068 191.515 545L190.893 549.5L194.188 543.511C201.456 530.303 217.229 517.204 231.041 512.905C238.484 510.589 242.334 510.492 244.413 512.571C248.901 517.061 243.395 535.124 233.651 547.88C227.155 556.382 217.644 562.413 204.04 566.657C197.684 568.64 190.065 571.367 187.107 572.718C180.018 575.957 179.111 575.05 177.733 563.361C175.684 545.967 179.784 523.309 187.901 507.165C197.785 487.506 216.005 465.892 231.873 455C236.277 451.977 239.903 449.25 239.935 448.938C239.962 448.628 237.847 448.266 235.234 448.135C217.151 447.225 193.598 435.759 180.984 421.726C170.871 410.476 165.591 396.966 165.526 382.173C165.489 374.068 165.738 372.66 167.425 371.423C172.306 367.845 183.088 371.553 194.418 380.706C201.582 386.493 212.536 399.806 216.952 408.092C218.726 411.419 220.353 413.964 220.57 413.748C221.562 412.751 211.295 385.139 205.475 373.147C201.911 365.805 199.244 359.394 199.548 358.897C199.853 358.404 201.519 358 203.25 358C205.796 358 207.562 359.196 212.483 364.25C223.507 375.571 226.393 382.283 233.544 413.221C236.121 424.375 238.838 434.691 239.58 436.148C241.306 439.533 249.087 443.414 252.207 442.444C253.459 442.055 258.031 439.961 262.365 437.791L270.247 433.846L269.629 423.673C269.29 418.078 268.554 390.1 267.995 361.5C266.255 272.55 266.386 275.973 264.503 270.5C257.97 251.523 227.538 232.723 200.982 231.26C191.484 230.737 177.304 232.688 172.701 235.151C168.618 237.337 169.876 234.676 175.393 229.459C183.878 221.436 199.304 214.829 214.484 212.717ZM35.5039 473C38.7088 473 41.8008 477.257 47.8867 490.049C54.9177 504.826 59.1638 520.914 65.4248 556.5C69.9627 582.298 74.1222 601 75.3222 601C75.4627 600.995 75.3871 597.991 75.1533 594.32C74.9193 590.646 75.2924 584.458 75.9824 580.57C77.4884 572.078 86.0322 546.865 90.2382 538.5C92.7653 533.474 99.2653 522.555 100.609 521.079C100.821 520.849 102.08 521.68 103.407 522.928C112.219 531.207 114.057 556.529 107.912 585C102.881 608.313 101.815 616.266 102.351 626.5C103.326 645.124 108.231 659.277 120.013 677.465C126.26 687.109 128.826 689.539 125.166 682.347C122.338 676.789 119.291 665.77 117.912 656.117C116.414 645.627 117.284 617.48 119.43 607C122.269 593.134 129.175 572.922 131.621 571.318C137.159 567.69 142.032 575.895 151.325 604.5C159.058 628.301 160.623 637.687 162.035 668.744C163.877 709.259 166.679 720.174 179.685 737.5C187.066 747.333 219.627 779 222.356 779C222.712 778.997 220.895 776.411 218.316 773.25C211.576 764.988 203.371 752.12 199.499 743.739C195.204 734.442 192.913 725.298 188.541 700C186.592 688.725 184.456 677.137 183.793 674.248C182.324 667.843 183.244 666.451 188.318 667.403C192.542 668.196 203.676 678.158 210.555 687.3C216.279 694.906 225.907 714.59 229.418 725.863C230.851 730.463 233.799 741.352 235.969 750.061C240.532 768.374 243.446 775.861 249.66 785.241C256.264 795.209 263.86 800.897 279.548 807.619C284.463 809.725 291.254 813.117 294.64 815.156C307.804 823.085 313.726 825.023 304.858 818.5C297.472 813.068 285.912 799.011 274.03 781.016C261.392 761.876 251.35 739.811 248.366 724.624C245.591 710.501 248.081 707.391 257.562 713.137C271.038 721.304 288.059 738.899 298.223 755.172C303.762 764.039 304.571 765.693 316.226 792C320.246 801.075 325.286 811.131 327.424 814.349C331.796 820.93 341.41 829.414 347.597 832.152C354.261 835.101 371.579 838.889 392.543 841.984C403.313 843.574 412.768 845.407 413.556 846.06C415.427 847.613 415.387 852.42 413.49 853.995C412.434 854.872 410.021 855.036 405.24 854.557C380.973 852.123 342.216 844.728 323.041 838.872L312.828 835.753L301.656 839.888C295.511 842.162 285.309 845.324 278.984 846.915C243.472 855.851 224.9 854.928 188.984 842.445C160.89 832.681 154.494 827.294 164.234 821.6C170.11 818.165 184.72 812.718 195.484 809.95C202.843 808.057 207.22 807.623 219.484 807.568C227.734 807.53 237.184 807.827 240.484 808.227L246.484 808.953L242.484 806.856C240.284 805.702 232.746 801.394 225.734 797.281C218.722 793.169 210.888 789.174 208.325 788.402C202.65 786.694 186.723 786.584 165.832 788.109C147.095 789.476 136.951 788.377 121.758 783.333C108.406 778.901 96.8337 771.924 87.2998 762.558C80.086 755.472 77.783 751.152 79.874 748.632C81.1167 747.136 91.8068 743.771 102.484 741.514C118.967 738.03 141.498 741.161 160.792 749.615L166.1 751.941L156.999 742.221C146.618 731.132 138.681 724.079 132.525 720.471C130.183 719.099 121.341 715.579 112.875 712.65C84.4832 702.827 70.4491 695.865 52.9033 682.902C37.7303 671.692 19.9843 652.033 19.9843 646.436C19.9845 643.682 21.0714 643.257 30.2177 642.428C39.1647 641.617 46.64 643.337 58.667 648.973C75.1869 656.714 86.3984 664.467 99.7343 677.372C104.27 681.76 107.982 685.035 107.984 684.649C107.984 683.845 101.142 674.873 89.9482 661C79.0182 647.454 71.5179 640.846 51.83 627.416C32.8651 614.48 17.6962 600.581 10.4492 589.5C5.38418 581.756 0.0219402 568.541 0.000940017 563.75C-0.0150599 560.178 0.138363 560.001 3.23434 560.022C13.9034 560.095 32.292 574.632 52.2207 598.75C61.8406 610.392 63.9995 612.779 63.9785 611.75C63.9753 611.612 60.6222 606.775 56.5254 601C37.8764 574.71 30.7995 557.195 27.8525 530.017C26.6396 518.832 27.7501 496.202 29.914 488C30.422 486.075 31.3524 481.913 31.9824 478.75C32.9904 473.683 33.4079 473 35.5039 473ZM247.984 817.518C235.274 815.725 223.515 815.758 211.484 817.62C200.26 819.358 179.568 825.003 180.667 826.028C182.675 827.901 215.317 837.978 222.914 839.07C234.033 840.669 255.079 839.728 270.484 836.942C277.084 835.748 283.009 834.486 283.65 834.136C284.285 833.786 272.812 833.454 258.15 833.397C224.048 833.265 195.486 830.152 195.484 826.568C195.484 823.344 223.873 821.552 252.683 822.957C265.223 823.568 277.059 824.304 278.984 824.592C281.431 824.957 282.033 824.828 280.984 824.161C279.085 822.953 261.688 819.451 247.984 817.518ZM609.984 817.248C599.809 819.57 592.282 821.624 593.258 821.813C594.233 822.002 601.658 821.452 609.758 820.591C643.855 816.967 664.022 816.779 675.892 819.975C679.588 820.971 680.047 821.36 678.872 822.503C678.109 823.246 674.109 824.533 669.984 825.362C655.038 828.367 641.13 829.464 617.735 829.482C604.673 829.492 593.986 829.591 593.985 829.703C593.984 830.294 602.879 832.262 613.484 834.016C633.889 837.389 652.296 836.359 669.121 830.902C678.743 827.781 695.984 820.814 695.984 820.048C695.983 819.675 689.345 818.085 681.234 816.516C668.894 814.128 663.38 813.61 647.484 813.344L628.484 813.027L609.984 817.248ZM275.366 745.002C267.9 736.084 261.984 730.078 261.984 731.416C261.984 732.461 277.276 761.849 281.801 769.5C286.969 778.239 294.149 788.912 303.823 802.237C312.347 813.977 315.883 817.306 310.251 808.288C304.154 798.523 300.735 791.726 295.03 778.028C288.343 761.969 285.318 756.89 275.366 745.002ZM611.151 731.046C609.838 731.136 599.167 741.606 594.705 747.182C588.413 755.045 584.149 763.043 577.035 780.326C573.679 788.48 569.321 798.38 567.353 802.326C563.116 810.821 563.567 810.456 572.696 798C580.506 787.344 590.721 770.467 597.358 757.251C599.79 752.408 604.039 744.52 606.8 739.722C609.558 734.927 611.517 731.025 611.151 731.046ZM672.715 692.398C672.069 691.752 664.874 703.55 661.067 711.5C658.96 715.9 653.527 729.175 648.995 741C639.129 766.74 631.566 781.825 624.621 789.618L619.492 795.373L624.488 792.523C632.229 788.107 634.35 785.64 640.267 774.168C647.886 759.395 651.338 751.184 657.978 732.038C661.132 722.942 665.816 710.378 668.384 704.118C670.951 697.86 672.899 692.588 672.715 692.398ZM199.875 691.75C195.954 685.101 194.347 683.317 195.371 686.75C205.851 721.872 212.93 740.922 222.963 761C231.725 778.535 237.503 787.475 242.851 791.773C248.459 796.279 249.161 795.795 244.334 790.75C234.473 780.444 226.299 763.89 217.053 735.5C208.673 709.77 205.03 700.49 199.875 691.75ZM140.823 753.921C127.437 750.986 109.558 750.712 96.0761 753.236C92.3823 753.928 121.253 770.465 132.984 774.377C144.265 778.138 170.689 780.221 180.484 778.12C182.876 777.607 181.76 777.226 174.984 776.24C165.77 774.9 154.735 772.274 134.555 766.618C117.26 761.772 112.885 758.86 120.698 757.394C128.006 756.023 155.632 761.548 176.096 768.471C180.103 769.827 183.524 770.794 183.698 770.62C184.208 770.105 166.15 761.93 157.484 758.753C153.084 757.14 145.587 754.965 140.823 753.921ZM772.748 746.25C773.461 744.033 740.216 744.664 730.984 747.042C724.104 748.815 690.492 764.369 689.269 766.347C688.98 766.816 689.584 766.75 690.613 766.201C694.64 764.051 724.711 753.796 732.377 751.958C745.606 748.786 755.802 749.622 751.852 753.554C748.931 756.462 714.933 767.46 697.484 771.144L691.484 772.411L698.484 773.094C706.959 773.922 725.706 772.572 734.696 770.487C738.305 769.65 744.233 767.384 747.871 765.45C754.728 761.805 772.041 748.443 772.748 746.25ZM134.75 595C133.787 590.458 133.183 589.103 132.745 590.5C129.305 601.466 128.383 646.776 131.277 662.636C133.564 675.167 137.216 686.324 143.67 700.5C149.966 714.328 152.828 718.527 147.574 706.227C139.339 686.949 133.984 663.814 133.984 647.516C133.984 637.223 135.37 633.529 138.179 636.338C139.734 637.892 140.549 641.567 143.541 660.5C145.338 671.875 151.58 697.588 153.115 699.938C154.035 701.346 154.089 701.346 153.664 699.942C151.946 694.252 149.892 680.449 148.985 668.5C147.556 649.672 146.732 644.81 141.025 621.5C138.331 610.5 135.508 598.575 134.75 595ZM736.347 599C733.862 587.735 731.993 583.055 731.975 588.05C731.966 590.402 730.144 598.76 724.466 622.5C722.27 631.678 721.688 637.227 720.949 656C720.213 674.676 719.631 680.253 717.523 688.814C716.127 694.486 714.998 699.436 715.014 699.814C715.094 701.618 717.344 696.155 719.573 688.738C724.467 672.455 726.181 664.282 727.542 650.739C728.867 637.562 730.001 633 731.952 633C736.557 633.001 733.371 662.45 726.058 687.494C724.453 692.989 723.284 697.629 723.459 697.808C723.982 698.33 728.886 687.114 732.037 678.188C738.17 660.816 740.204 651.243 740.722 637.315C741.236 623.469 740.691 618.695 736.347 599ZM71.083 670.659C63.159 665.35 42.9843 654.375 42.9843 655.373C42.9856 656.168 67.9816 675.4 79.2763 683.296C92.4963 692.538 115.347 704.694 107.346 698.229C94.5118 687.858 77.8761 675.209 71.083 670.659ZM833.984 640.367C833.984 639.53 832.039 640.318 823.484 644.619C801.818 655.511 792.845 661.728 774.258 678.725C767.777 684.651 760.686 690.962 758.501 692.75C756.316 694.538 754.829 696 755.195 696C756.886 695.997 785.237 681.283 791.484 677.165C795.335 674.628 804.586 666.64 812.045 659.415C819.503 652.19 827.491 645.031 829.795 643.506C832.098 641.982 833.983 640.57 833.984 640.367ZM344.669 458.458C346.086 457.041 347.717 456.863 354.919 457.34C359.63 457.652 366.409 458.602 369.984 459.451C373.56 460.3 383.685 461.479 392.484 462.071C408.139 463.124 408.549 463.21 411.51 466.053C414.415 468.842 420.154 477.548 421.559 481.293C422.192 482.982 421.45 483.048 408.858 482.423C401.502 482.058 393.523 481.412 391.127 480.989L386.769 480.218L387.278 554.859C387.592 600.881 388.206 632.376 388.881 637C390.236 646.285 394.774 655.856 399.779 659.985C401.817 661.665 405.96 663.927 408.984 665.01C412.009 666.092 415.609 667.561 416.984 668.271C419.84 669.748 420.719 673.641 418.776 676.211C417.594 677.775 413.54 677.939 371.149 678.132C320.298 678.363 323.03 678.696 322.999 672.269C322.986 669.553 323.422 668.941 325.734 668.429C339.028 665.486 346.305 657.523 349.031 642.938C350.492 635.118 350.5 608.92 349.063 542C347.876 486.684 347.533 480.998 344.86 472.62C342.535 465.333 342.472 460.654 344.669 458.458ZM810.484 666C810.209 666 809.984 666.225 809.984 666.5C809.984 666.775 810.209 667 810.484 667C810.759 667 810.984 666.775 810.984 666.5C810.984 666.225 810.759 666 810.484 666ZM30.333 584.886C24.9939 579.805 13.9843 571.543 13.9843 572.615C13.9853 573.854 21.2603 582.375 30.4326 591.879C38.858 600.61 62.3456 621.997 63.5117 622C64.3207 621.999 35.7529 590.042 30.333 584.886ZM479.922 209.395C480.791 208.538 546.35 209.205 548.734 210.095C550.391 210.714 550.984 211.739 550.984 213.98C550.984 216.687 550.401 217.288 545.734 219.388C536.048 223.746 530.048 231.813 527.507 243.892C524.621 257.611 523.911 282.471 524.579 346.5C524.934 380.592 525.431 408.711 525.686 409C525.939 409.275 534.436 409.648 544.565 409.829L562.984 410.159L562.966 373.329C562.956 353.073 562.544 332.675 562.05 328C560.322 311.656 554.756 302.355 542.933 296.053C536.885 292.83 536.878 292.821 537.181 288.663L537.484 284.5L543.484 283.859C552.424 282.903 627.785 282.869 628.373 283.82C628.652 284.272 629.102 285.867 629.374 287.364C629.818 289.817 629.2 290.515 623.176 294.377C615.416 299.351 610.496 304.588 607.748 310.799C605.108 316.768 604.219 329.018 603.607 367.814L603.097 400.127L608.791 396.941C639.73 379.627 662.498 345.294 671.876 301.81C674.72 288.619 676.846 275.001 676.061 275C675.705 275.001 674.6 276.38 673.604 278.065C666.913 289.391 641.52 308.789 634.667 307.809C629.534 307.075 631.806 304.015 654.659 280.887C667.213 268.182 678.448 257.414 679.627 256.959C683.159 255.594 685.949 257.021 688.268 261.378C690.275 265.149 690.459 266.904 690.434 282C690.374 317.272 679.789 347.588 659.15 371.601C646.379 386.458 632.723 396.634 605.734 411.402C603.174 412.803 602.984 413.352 602.984 419.354V425.801L607.734 426.874C610.347 427.464 617.885 428.65 624.484 429.51C639.612 431.48 645.495 433.15 655.379 438.278C672.384 447.1 686.294 464.855 688.931 481.102C690.207 488.965 690.298 503.045 689.093 506.213C688.237 508.464 687.75 508.566 676.727 508.771C660.16 509.079 651.357 505.65 640.74 494.75C633.746 487.569 628.698 476.711 621.877 454.18C619.066 444.895 617.091 442.44 609.565 438.876L603.484 435.996L602.866 448.748C602.526 455.762 602.188 495.844 602.114 537.82C602.026 587.852 601.626 614.794 600.953 616.058C598.913 619.869 587.229 620.618 581.95 617.276C578.615 615.164 571.875 606.667 568.883 600.802C563.785 590.809 563.799 591.043 563.247 505.629L562.731 425.758L554.607 426.37C550.141 426.706 541.647 427.274 535.734 427.632L524.984 428.283V466.002C524.984 506.24 524.596 513 522.289 513C520.009 513 504.232 499.18 497.77 491.521C494.512 487.66 490.191 481.8 488.166 478.5L484.484 472.5L483.484 423.5L478.484 422.201C475.734 421.486 466.154 420.631 457.196 420.301C438.673 419.619 439.705 420.135 435.162 409.315C431.483 400.554 431.207 400.794 447.025 398.985C458.263 397.699 462.664 398.143 481.541 402.47C483.51 402.921 483.585 402.574 483.318 394.221C483.164 389.423 482.554 356.024 481.962 320C481.371 283.975 480.449 251.429 479.915 247.676C478.125 235.11 472.143 226.934 460.767 221.5C454.7 218.603 454.494 218.381 454.766 215.039C454.922 213.135 455.54 211.275 456.141 210.903C456.741 210.532 462.224 210.154 468.325 210.064C474.427 209.973 479.645 209.672 479.922 209.395ZM99.75 540C98.6979 540 91.8305 557.275 89.8935 564.796C86.8885 576.463 86.3342 592.419 88.4472 606.396C89.4132 612.788 90.6037 618.265 91.0937 618.568C91.5827 618.87 91.9843 616.388 91.9843 613.051C91.9844 606.309 95.294 581.343 97.625 570.5C98.453 566.65 99.3881 558.212 99.7041 551.75C100.02 545.289 100.04 540.001 99.75 540ZM847.651 563C846.29 563 834.994 573.242 829.906 579.089C820.741 589.622 799.012 617 799.817 617C800.235 616.994 807.562 609.909 816.106 601.25C829.802 587.369 840.902 574.382 846.447 565.75C847.419 564.238 847.96 563.001 847.651 563ZM40.0634 501.5C39.3494 495.538 39.3403 495.57 38.5293 506.481C36.9033 528.371 39.581 544.892 48.4179 567.494C53.0689 579.387 59.7923 593.32 66.1933 604.327C70.6982 612.075 72.2751 612.766 68.6162 605.388C63.6602 595.397 54.6026 573.143 50.8877 561.829C46.2477 547.701 43.4577 534.364 41.9277 519C41.2977 512.675 40.4584 504.8 40.0634 501.5ZM792.484 606C792.209 606 791.984 606.225 791.984 606.5C791.984 606.775 792.209 607 792.484 607C792.759 607 792.984 606.775 792.984 606.5C792.984 606.225 792.759 606 792.484 606ZM768.135 522.751C766.994 521.611 764.984 530.216 764.984 536.24C764.984 538.519 766.603 548.509 768.582 558.441C771.851 574.847 772.131 577.553 771.638 588C771.34 594.325 770.652 600.962 770.11 602.75C769.567 604.537 769.471 605.999 769.895 606C770.908 606 772.586 600.185 774.073 591.516C774.884 586.79 775.052 579.41 774.593 568.686C773.877 551.944 774.594 549.624 777.494 559.293C779.902 567.323 780.446 584.767 778.653 596.487C777.812 601.98 777.279 606.629 777.468 606.818C777.657 607.004 778.636 603.636 779.643 599.331C781.05 593.314 781.465 587.562 781.436 574.5C781.394 555.218 780.281 549.667 773.134 533.097C770.903 527.925 768.653 523.269 768.135 522.751ZM819.261 500C816.683 507.597 811.851 525.672 808.434 540.5C807.158 546.038 810.805 536.45 814.445 524.698C819.382 508.758 821.605 506.728 820.554 519.12C819.289 534.015 816.078 545.783 806.258 571.5C801.008 585.249 795.843 598.229 794.779 600.347C793.715 602.463 793.094 604.443 793.398 604.748C794.34 605.68 805.586 581.215 810.471 567.608C816.537 550.71 819.581 539.123 821.515 525.573C822.474 518.852 822.975 509.784 822.79 502.5L822.484 490.5L819.261 500ZM233.237 526.055C232.823 526.085 230.237 527.665 227.49 529.564C222.512 533.006 197.984 556.812 197.984 558.201C197.985 558.602 201.663 556.809 206.158 554.216C216.26 548.387 225.3 540.077 230.237 532.08C232.302 528.737 233.651 526.027 233.237 526.055ZM651.584 452.166C645.364 448.266 631.984 442.603 631.984 443.87C631.985 444.254 633.304 445.349 634.918 446.302C636.532 447.255 642.562 452.532 648.319 458.029C658.673 467.914 666.474 477.96 669.479 485.273C670.885 488.695 670.883 489.101 669.452 489.651C667.215 490.509 657.874 483.918 649.234 475.386C645.247 471.448 641.984 468.453 641.984 468.729C641.987 469.009 644.028 472.305 646.522 476.057C651.754 483.927 659.383 491.155 665.994 494.505C671.292 497.19 677.984 498.716 677.984 497.24C677.984 494.067 672.761 476.494 670.481 471.994C666.977 465.079 659.25 456.972 651.584 452.166ZM179.817 384C178.615 384 185.532 400.495 189.416 406.889C196.636 418.774 206.744 427.677 218.621 432.613L222.484 434.218L217.854 430.131C205.811 419.495 198.069 410.279 185.999 392.211C182.984 387.697 180.203 384.003 179.817 384ZM9.08883 338.945C10.1278 334.101 10.3529 333.823 12.8388 334.315C14.294 334.602 26.9595 336.979 40.9843 339.596C55.0033 342.213 66.6391 344.476 66.8496 344.627C67.3255 344.98 65.1882 357.13 64.5341 357.783C64.1101 358.208 59.3804 357.437 43.9345 354.426C41.4019 353.932 41.3726 354.005 39.5117 365.459C38.4817 371.8 37.8817 377.232 38.1797 377.529C38.4771 377.827 43.7641 379.013 49.9277 380.165C60.8194 382.202 61.1189 382.327 60.54 384.631C60.213 385.935 59.6681 389.026 59.3291 391.501C58.9902 393.974 58.4831 395.999 58.2031 396C57.5988 396 6.41111 386.219 3.45407 385.539C1.5421 385.099 1.48214 384.696 2.41012 378.536C3.53612 371.069 2.93726 371.322 14.3222 373.5C26.4137 375.814 25.3616 376.604 27.6025 363.527C28.9063 355.919 29.2178 351.926 28.5263 351.668C27.9532 351.456 23.0961 350.461 17.7343 349.457C6.85149 347.421 7.18389 347.827 9.08883 338.945ZM847.234 339.128C847.647 339.058 847.984 339.258 847.984 339.574C847.985 340.606 856.066 388.435 856.607 390.614C857.218 393.073 856.134 393.646 849.117 394.577L844.225 395.226L842.953 386.677C842.253 381.975 841.348 377.589 840.942 376.931C840.384 376.03 835.188 376.612 819.843 379.295C808.646 381.252 797.631 383.142 795.365 383.493L791.245 384.132L790.164 376.849C789.57 372.844 789.174 369.478 789.285 369.366C789.399 369.255 800.276 367.302 813.459 365.025C826.643 362.75 837.617 360.698 837.849 360.468C838.258 360.058 836.305 346.075 835.39 342.868C835.018 341.565 836.088 341.037 840.704 340.246C843.883 339.702 846.821 339.199 847.234 339.128ZM829.722 280.462C830.021 280.695 843.984 324.665 843.984 325.378C843.984 326.178 833.083 329.429 832.465 328.814C832.166 328.516 829.925 321.849 827.484 314C825.044 306.152 822.895 299.578 822.709 299.392C821.983 298.669 808.985 303.469 809.003 304.454C809.014 305.03 810.805 311.098 812.983 317.938C815.161 324.776 816.839 330.467 816.714 330.584C816.072 331.173 805.593 333.938 805.258 333.607C805.046 333.395 803.263 327.884 801.297 321.361C799.33 314.838 797.384 309.127 796.973 308.67C796.559 308.214 791.626 309.258 786.009 310.992C780.394 312.725 775.665 313.998 775.498 313.822C775.335 313.645 774.288 310.435 773.171 306.688C771.704 301.764 771.466 299.759 772.312 299.449C772.958 299.214 786.085 294.805 801.484 289.652C816.876 284.501 829.578 280.367 829.722 280.462ZM43.9843 266.875C48.0766 265.528 59.1509 266.538 64.0507 268.705C70.3657 271.499 75.647 276.423 78.75 282.41C82.3479 289.353 82.5448 301.99 79.1699 309.383C73.5909 321.606 64.096 328.007 51.5742 327.99C32.2252 327.964 19.0697 312.572 22.1347 293.545C24.3577 279.743 31.5444 270.971 43.9843 266.875ZM59.6611 282.086C55.5593 280.1 48.4075 279.435 44.9843 280.722C35.8214 284.165 31.4011 296.016 35.9531 304.939C40.8503 314.538 55.7283 317.393 63.3232 310.192C67.9031 305.85 69.2499 302.36 68.792 296.024C68.289 289.069 65.597 284.959 59.6611 282.086ZM811.64 238.787L808.457 242.644C805.237 246.545 791.189 264.389 777.278 282.25C773.102 287.612 769.396 291.999 769.042 292C768.689 292 766.683 289.065 764.584 285.478C760.36 278.257 760.228 279.161 766.659 271.288L769.834 267.402L756.863 242.997L751.173 243.626C748.045 243.971 745.073 244.31 744.567 244.377C743.74 244.488 735.984 232.332 735.984 230.926C735.988 230.605 744.199 229.77 754.234 229.072C764.272 228.373 776.984 227.461 782.484 227.046C787.984 226.631 795.266 226.225 798.667 226.145L804.85 226L811.64 238.787ZM65.3877 199.691C67.2964 196.354 68.4955 195.162 69.3105 195.796C69.9558 196.299 81.3975 202.882 94.7343 210.426L118.985 224.142L116.32 228.821C114.854 231.395 113.391 233.796 113.069 234.157C112.747 234.519 103.709 236.007 92.9843 237.464C82.2613 238.921 72.7193 240.425 71.7773 240.807C70.5284 241.314 74.0442 243.745 84.8701 249.861L99.6709 258.223L96.7627 263.592C95.1629 266.545 93.4446 269.216 92.9423 269.526C92.4412 269.836 84.0317 265.407 74.2568 259.684C64.482 253.961 53.2233 247.397 49.2382 245.098L41.9922 240.917L44.5254 235.92C45.9172 233.171 48.0525 230.549 49.2695 230.092C50.4876 229.635 60.1465 228.194 70.7343 226.891C81.3221 225.587 89.9758 224.291 89.9658 224.01C89.9519 223.728 83.4075 219.746 75.4179 215.161C65.3249 209.368 61.1556 206.467 61.7636 205.661C62.2446 205.022 63.8767 202.336 65.3877 199.691ZM792.234 241.828C793.92 240.067 793.793 240.006 788.734 240.16C782.791 240.341 777.973 240.775 773.242 241.554L769.999 242.088L772.911 247.794C778.274 258.306 777.806 258.199 784.561 250.452C787.817 246.715 791.272 242.834 792.234 241.828ZM747.01 146C748.133 146.001 765.635 167.549 768.543 172.511C774.034 181.879 772.573 193.525 765.056 200.316C759.948 204.931 755.13 206.396 747.431 205.677L741.196 205.095L738.104 216.199C736.405 222.306 734.838 227.48 734.622 227.695C734.405 227.911 731.958 225.368 729.183 222.047L724.136 216.007L726.184 208.754C727.311 204.764 728.627 200.458 729.108 199.185C730.483 195.55 730.231 194.763 726.089 189.75L722.194 185.036L715.406 190.601C708.801 196.014 708.575 196.112 707.051 194.193C706.189 193.109 704.044 190.447 702.283 188.279L699.082 184.336L712.783 173.227C720.319 167.116 730.938 158.491 736.382 154.059C741.825 149.626 746.606 146.001 747.01 146ZM106.824 144.038C107.188 144.059 109.239 145.579 111.385 147.414L115.286 150.753L108.46 159.626C104.705 164.507 100.508 169.733 99.1318 171.24C97.7564 172.746 96.8226 174.121 97.0566 174.297C97.2917 174.471 99.4544 176.134 101.862 177.992C105.6 180.877 106.404 181.154 107.362 179.888C107.98 179.072 111.573 174.47 115.348 169.663L122.213 160.92L125.293 163.296C131.43 168.028 131.875 166.888 115.795 187.65C115.2 188.421 116.453 190.069 119.573 192.627L124.243 196.453L127.204 192.976C129.955 189.746 141.666 174.809 143.135 172.657C143.493 172.132 145.832 173.381 148.334 175.431L152.883 179.158L145.743 188.329C141.816 193.373 135.52 201.417 131.752 206.205L124.901 214.91L108.645 201.705C99.7057 194.442 89.6252 186.25 86.2441 183.5C82.8641 180.75 80.072 178.221 80.041 177.881C79.9824 177.237 82.3848 174.08 97.2705 155.25C102.162 149.063 106.462 144.017 106.824 144.038ZM746.984 165.022C746.709 165.033 744.033 167.095 741.036 169.603C738.04 172.11 734.707 174.781 733.629 175.536C731.739 176.86 731.823 177.107 736.037 182.569C741.339 189.441 744.157 191.4 748.74 191.4C751.416 191.4 752.913 190.643 755.111 188.184C759.792 182.945 758.882 179.284 750.193 168.395C748.704 166.529 747.261 165.012 746.984 165.022ZM688.251 105.12C698.31 103.291 708.551 106.793 717.427 115.096C724.048 121.289 727.196 126.943 728.369 134.75L729.008 139H721.996C715.343 139 714.984 138.882 714.984 136.696C714.984 132.139 710.024 124.107 705.637 121.56C698.803 117.593 694.842 117.345 688.424 120.486C680.976 124.13 677.692 129.07 677.202 137.367C676.888 142.676 677.197 144.043 679.5 147.541C683.456 153.551 688.088 156.308 695.077 156.813C699.691 157.147 700.986 157.597 700.993 158.87C700.997 159.767 701.293 162.931 701.65 165.9L702.298 171.299L695.752 170.774C687.118 170.08 679.288 166.4 672.935 160.046C666.381 153.492 663.762 147.551 663.217 138C662.653 128.123 665.266 120.886 671.81 114.205C676.94 108.968 681.771 106.299 688.251 105.12ZM145.936 106.356C151.801 104.259 152.797 104.593 154.001 109.063C154.603 111.297 155.342 113.773 155.645 114.563C156.006 115.503 155.538 116 154.287 116C153.236 116 150.008 117.18 147.113 118.623C137.757 123.286 133.886 132.932 140.688 134.641C142.751 135.159 145.548 134.19 152.921 130.406C161.063 126.227 163.322 125.5 168.166 125.5C173.109 125.5 174.27 125.892 177.041 128.5C180.949 132.176 182.987 136.717 182.974 141.718C182.945 153.204 168.739 167.416 155.109 169.596L151.124 170.233L150.005 165.867C149.389 163.465 148.72 161.001 148.519 160.39C148.316 159.77 150.712 158.57 153.956 157.668C164.308 154.789 172.016 146.853 169.899 141.25C168.575 137.748 164.146 138.414 154.184 143.613C140.487 150.762 133.405 150.078 127.234 141.01C124.568 137.093 124.214 129.779 126.433 124.468C129.636 116.801 137.719 109.296 145.936 106.356ZM197.984 65.0674C198.261 65.0728 199.802 67.1501 201.41 69.6865L204.336 74.2998L201.828 76.4004C200.448 77.5554 197.207 79.9621 194.625 81.748L189.93 84.9971L196.144 94.248C199.562 99.337 204.43 106.425 206.962 110C209.493 113.575 212.568 118.143 213.794 120.15L216.024 123.8L211.12 127.4C208.423 129.38 205.806 131 205.304 131C204.801 130.997 198.611 122.454 191.546 112.014L178.699 93.0283L172.591 97.3408C169.232 99.7136 165.949 101.966 165.296 102.348C164.567 102.774 162.89 101.27 160.95 98.4502C159.214 95.9262 157.948 93.7347 158.138 93.5791C158.328 93.4247 165.235 88.4302 173.484 82.4795C181.734 76.5285 190.509 70.1754 192.984 68.3604C195.459 66.5455 197.709 65.0635 197.984 65.0674ZM609.933 73.2412C618.86 57.6572 623.625 50.2583 624.371 50.8193C624.984 51.2796 627.586 52.8565 630.154 54.3232L634.824 56.9902L624.809 74.7451C619.301 84.5091 614.168 93.7034 613.401 95.1777L612.007 97.8564L635.853 112.325L633.369 117.227C632.003 119.921 630.338 121.986 629.668 121.814C628.999 121.641 620.681 116.831 611.185 111.125C594.624 101.173 593.973 100.662 595.263 98.625C596.003 97.4558 602.604 86.0329 609.933 73.2412ZM274.387 27.2842C281.125 24.5292 281.863 24.5511 282.999 27.5391C283.53 28.9355 288.502 40.7293 294.048 53.748C305.184 79.8887 305.013 78.3499 297.077 80.9688L293.069 82.292L274.556 72.1465C264.373 66.5668 255.788 62.0004 255.478 62C255.168 62.0009 255.429 62.9634 256.059 64.1406C257.65 67.1116 267.984 92.0873 267.984 92.9619C267.984 93.3529 265.262 94.8463 261.937 96.2812L255.893 98.8896L255.051 96.6953C254.588 95.4883 249.593 83.3172 243.952 69.6484C232.722 42.4405 232.953 44.3869 240.608 41.4219L244.732 39.8252L263.092 50.3447C273.189 56.1305 281.563 60.7538 281.7 60.6182C281.835 60.4801 279.099 53.3938 275.619 44.8691L269.291 29.3682L274.387 27.2842ZM575.422 28C575.849 28.0008 587.406 33.1131 587.769 33.4609C588.23 33.9114 590.883 97.4307 590.458 97.8604C590.244 98.0718 587.238 97.115 583.777 95.7324L577.484 93.2178L576.9 79.165L568.692 75.7334C564.178 73.8464 558.79 71.6913 556.719 70.9453L552.955 69.5879L544.298 79.4258L538.141 76.9805C534.755 75.6356 531.985 74.2173 531.984 73.8281C531.984 73.4401 541.687 62.9685 553.547 50.5605C565.404 38.1531 575.248 28.0024 575.422 28ZM323.792 12.2158C332.757 10.3438 332.029 9.87508 343.245 24.75C358.704 45.2495 370.185 61.1313 369.813 61.498C369.483 61.8176 357.618 64.9999 356.756 65C356.513 64.9992 354.604 62.5131 352.512 59.4756C349.944 55.7479 348.184 54.1004 347.096 54.4043C346.208 54.6535 340.984 55.8534 335.484 57.0723C329.985 58.2912 324.95 59.7048 324.297 60.2139C323.644 60.7229 322.807 63.5701 322.436 66.54C322.065 69.5095 321.249 72.3499 320.623 72.8525C319.238 73.9635 308.882 76.231 308.219 75.5684C307.856 75.2052 315.235 32.6474 318.573 15.8477C319.015 13.623 319.857 13.0368 323.792 12.2158ZM494.376 6.00488C495.898 6.01201 517.715 10.717 521.769 11.9121C529.794 14.2781 535.792 20.724 537.475 28.7939C539.117 36.6649 533.457 47.5426 525.978 50.8906L522.332 52.5244L526.125 62.5117C528.211 68.0047 529.932 72.8883 529.951 73.3613C529.987 74.3268 524.511 73.4675 519.219 71.6787C515.988 70.5858 515.499 69.8413 512.56 61.5195L509.388 52.54L504.613 51.1914C501.986 50.4494 499.242 50.0706 498.514 50.3496C497.778 50.633 496.627 54.0141 495.919 57.9736C495.22 61.887 494.352 65.2711 493.991 65.4961C493.326 65.907 482.211 63.5604 481.512 62.8613C481.303 62.6519 483.143 53.2598 485.602 41.9902C488.062 30.7213 490.792 18.013 491.671 13.75C492.55 9.48708 493.767 6.002 494.376 6.00488ZM576.234 45.0332C575.435 45.0672 564.033 57.3682 562.682 59.6533C562.134 60.5791 562.611 61.2934 564.182 61.9033C565.448 62.3943 568.846 63.7348 571.734 64.8828L576.984 66.9707V55.9854C576.984 49.9459 576.647 45.0193 576.234 45.0332ZM406.603 0.120117C408.306 0.0241358 408.844 0.735057 409.342 3.75C410.683 11.8599 410.921 11.5997 401.247 12.5977L392.51 13.5L392.781 18C393.024 22.0341 395.117 42.9441 396.502 55.165C397.008 59.633 396.913 59.854 394.257 60.377C392.732 60.6779 389.684 61.0529 387.484 61.21L383.484 61.4961L381.32 39.998C380.13 28.1741 379.117 17.6959 379.07 16.7139C378.992 15.088 378.194 14.9877 370.139 15.5957L361.294 16.2637L360.663 10.9414C360.317 8.0136 360.212 5.43804 360.432 5.21875C360.651 4.99868 370.654 3.78922 382.657 2.53027C394.661 1.27044 405.435 0.18636 406.603 0.120117ZM435.274 15.75C434.23 36.558 434.284 38.9139 435.897 42.7969C438.547 49.1807 448.239 51.1808 453.809 46.4941C457.764 43.1661 458.737 38.3639 459.559 18.123L460.223 1.74512L466.66 2.26172C470.199 2.54567 473.216 2.94064 473.366 3.13867C473.514 3.33852 473.11 12.7255 472.467 24C471.167 46.8137 470.311 49.8722 463.57 55.79C459.337 59.507 454.512 60.9871 446.6 60.9941C438.528 61.0021 433.641 59.3306 428.499 54.8037C421.482 48.6278 420.573 44.4906 421.421 22.5947C421.807 12.6429 422.365 3.48702 422.662 2.25C423.152 0.206062 423.789 3.58612e-06 429.633 0H436.065L435.274 15.75ZM336.403 36.4492C329.134 26.2282 329.189 26.2795 328.571 29.1055C327.485 34.0741 325.84 47.1842 326.25 47.5986C326.485 47.8346 330.138 47.2109 334.367 46.2129L342.056 44.3994L336.403 36.4492ZM513.197 21.6396C504.389 19.1677 504.283 19.2111 502.982 25.75C502.352 28.912 501.459 32.9563 500.995 34.7363C500.157 37.9581 500.176 37.9794 505.25 39.4863C515.945 42.6622 522.439 40.3491 523.617 32.9453C524.445 27.7374 520.789 23.7697 513.197 21.6396Z" fill="#3f5123"/>
</svg>
